<?xml version="1.0" encoding="UTF-8"?>
<svg id="Layer_1" xmlns="http://www.w3.org/2000/svg" version="1.1" viewBox="0 0 200 200">
  <!-- Generator: Adobe Illustrator 30.0.0, SVG Export Plug-In . SVG Version: 2.1.1 Build 123)  -->
  <defs>
    <style>
      .st0 {
        fill-opacity: .07;
        stroke: #d81f2a;
        stroke-miterlimit: 10;
        stroke-opacity: .5;
      }

      .st0, .st1 {
        fill: #d81f2a;
      }
    </style>
  </defs>
  <path class="st1" d="M115.13,82.42v18.17h26.86l-4.29,28h-22.57v67.68c-4.93.77-9.98,1.17-15.13,1.17s-10.2-.4-15.13-1.17v-67.67h-24.59v-28h24.59v-21.34c0-24.27,14.46-37.69,36.59-37.69,10.6,0,21.68,1.89,21.68,1.89v23.84h-12.22c-12.03,0-15.79,7.47-15.79,15.12Z"/>
  <path class="st0" d="M197.44,100c0,44.89-30.36,82.69-71.67,93.98-.69.19-1.39.37-2.09.55-.92.24-1.86.46-2.8.66-1.18.26-2.38.5-3.59.72-.71.13-1.43.25-2.16.36v-67.68h22.57l4.29-28h-26.86v-18.17c0-7.65,3.76-15.12,15.79-15.12h12.22v-23.84s-11.08-1.89-21.68-1.89c-22.13,0-36.59,13.42-36.59,37.69v21.34h-24.59v28h24.59v67.67c-.6-.09-1.2-.19-1.8-.3-1.83-.32-3.63-.69-5.41-1.11-.57-.13-1.14-.27-1.7-.42-.69-.16-1.38-.35-2.06-.55-.59-.16-1.17-.33-1.75-.5C31.9,181.41,2.56,144.13,2.56,100,2.56,46.19,46.19,2.56,100,2.56s97.44,43.63,97.44,97.44Z"/>
</svg>