<?xml version="1.0" encoding="UTF-8"?>
<svg id="Layer_1" xmlns="http://www.w3.org/2000/svg" version="1.1" viewBox="0 0 200 200">
  <!-- Generator: Adobe Illustrator 30.0.0, SVG Export Plug-In . SVG Version: 2.1.1 Build 123)  -->
  <defs>
    <style>
      .st0, .st1 {
        fill-opacity: .07;
      }

      .st0, .st1, .st2 {
        fill: #d81f2a;
      }

      .st1 {
        stroke: #d81f2a;
        stroke-miterlimit: 10;
        stroke-opacity: .5;
      }
    </style>
  </defs>
  <path class="st1" d="M100,3.15C46.54,3.15,3.15,46.47,3.15,100s43.39,96.85,96.85,96.85,96.85-43.39,96.85-96.85S153.53,3.15,100,3.15ZM156.77,122.52c0,18.81-15.3,34.12-34.12,34.12h-45.31c-18.81,0-34.12-15.3-34.12-34.12v-45.38c0-18.81,15.3-34.12,34.12-34.12h45.31c18.81,0,34.12,15.3,34.12,34.12v45.38Z"/>
  <path class="st0" d="M122.66,53.76h-45.31c-12.92,0-23.45,10.47-23.45,23.39v45.38c0,12.92,10.53,23.45,23.45,23.45h45.31c12.92,0,23.45-10.53,23.45-23.45v-45.38c0-12.92-10.53-23.39-23.45-23.39ZM100.46,127.82c-15.44,0-27.96-12.59-27.96-27.96s12.52-28.02,27.96-28.02,27.96,12.59,27.96,28.02-12.52,27.96-27.96,27.96ZM130.08,76.68c-3.64,0-6.62-2.98-6.62-6.69s2.98-6.62,6.62-6.62,6.69,2.98,6.69,6.62-2.98,6.69-6.69,6.69Z"/>
  <path class="st0" d="M118.42,99.87c0,9.87-8.08,17.89-17.95,17.89s-17.89-8.02-17.89-17.89,8.02-17.95,17.89-17.95,17.95,8.08,17.95,17.95Z"/>
  <path class="st2" d="M100.46,71.84c-15.44,0-27.96,12.65-27.96,28.02s12.52,27.96,27.96,27.96,27.96-12.53,27.96-27.96-12.52-28.02-27.96-28.02ZM100.47,117.76c-9.87,0-17.89-8.02-17.89-17.89s8.02-17.95,17.89-17.95,17.95,8.08,17.95,17.95-8.08,17.89-17.95,17.89Z"/>
  <path class="st2" d="M122.65,43.02h-45.31c-18.82,0-34.12,15.31-34.12,34.12v45.38c0,18.82,15.31,34.12,34.12,34.12h45.31c18.82,0,34.12-15.31,34.12-34.12v-45.38c0-18.82-15.31-34.12-34.12-34.12ZM146.11,122.53c0,12.92-10.53,23.45-23.45,23.45h-45.31c-12.92,0-23.45-10.53-23.45-23.45v-45.38c0-12.92,10.53-23.39,23.45-23.39h45.31c12.92,0,23.45,10.47,23.45,23.39v45.38Z"/>
  <path class="st2" d="M136.77,69.99c0,3.64-2.98,6.69-6.69,6.69s-6.62-2.98-6.62-6.69,2.98-6.62,6.62-6.62,6.69,2.98,6.69,6.62Z"/>
</svg>