<?xml version="1.0" encoding="UTF-8"?>
<svg id="Layer_1" xmlns="http://www.w3.org/2000/svg" version="1.1" viewBox="0 0 200 200">
  <!-- Generator: Adobe Illustrator 30.0.0, SVG Export Plug-In . SVG Version: 2.1.1 Build 123)  -->
  <defs>
    <style>
      .st0 {
        opacity: .07;
      }

      .st0, .st1 {
        fill: #d81f2a;
      }

      .st2 {
        fill: none;
        opacity: .5;
        stroke: #d81f2a;
        stroke-miterlimit: 10;
      }
    </style>
  </defs>
  <path class="st0" d="M100,3.14C46.51,3.14,3.14,46.51,3.14,100s43.36,96.86,96.86,96.86,96.86-43.37,96.86-96.86S153.49,3.14,100,3.14ZM150.32,88.83h-.01c-.99.1-1.99.15-2.98.16-10.92,0-21.1-5.51-27.08-14.63v49.84c0,20.34-16.5,36.84-36.84,36.84s-36.84-16.49-36.84-36.84,16.5-36.84,36.84-36.84c.77,0,1.52.07,2.28.12v18.15c-.76-.09-1.5-.23-2.28-.23-10.38,0-18.8,8.42-18.8,18.8s8.42,18.8,18.8,18.8,19.56-8.18,19.56-18.57l.18-84.65h17.36c1.64,15.57,14.2,27.74,29.81,28.88v20.17Z"/>
  <path class="st2" d="M100,3.14C46.51,3.14,3.14,46.51,3.14,100s43.36,96.86,96.86,96.86,96.86-43.37,96.86-96.86S153.49,3.14,100,3.14ZM150.32,88.83h-.01c-.99.1-1.99.15-2.98.16-10.92,0-21.1-5.51-27.08-14.63v49.84c0,20.34-16.5,36.84-36.84,36.84s-36.84-16.49-36.84-36.84,16.5-36.84,36.84-36.84c.77,0,1.52.07,2.28.12v18.15c-.76-.09-1.5-.23-2.28-.23-10.38,0-18.8,8.42-18.8,18.8s8.42,18.8,18.8,18.8,19.56-8.18,19.56-18.57l.18-84.65h17.36c1.64,15.57,14.2,27.74,29.81,28.88v20.17Z"/>
  <path class="st1" d="M150.32,68.66v20.17h-.01c-.99.1-1.99.15-2.98.16-10.92,0-21.1-5.51-27.08-14.63v49.84c0,20.34-16.5,36.84-36.84,36.84s-36.84-16.49-36.84-36.84,16.5-36.84,36.84-36.84c.77,0,1.52.07,2.28.12v18.15c-.76-.09-1.5-.23-2.28-.23-10.38,0-18.8,8.42-18.8,18.8s8.42,18.8,18.8,18.8,19.56-8.18,19.56-18.57l.18-84.65h17.36c1.64,15.57,14.2,27.74,29.81,28.88Z"/>
</svg>